# xmcd CD database file
#
# Track frame offsets:
#	225
#	14263
#	32557
#	52264
#	71263
#	82431
#	104336
#	120940
#	137447
#	148318
#	174972
#	187634
#	208358
#	220463
#	240380
#	256036
#
# Disc length: 3580 seconds
#
# Revision: 0
# Processed by: cddbd v1.5PL3 Copyright (c) Steve Scherf et al.
# Submitted via: CDex 1.51
#
DISCID=e20df910
DTITLE=The way I like the Blues vol. 1 - The way I like the Blues vol. 1
DYEAR=1900
DGENRE=Blues
TTITLE0=Valerie Wellington-Wild about you
TTITLE1=Teddy Morgan and The Sevilles-Make up your mind
TTITLE2=Dirty hands-Judgement day
TTITLE3=John Mohead-Going down the road
TTITLE4=Mitch Woods-Chicago Express
TTITLE5=Sonny Rhodes-Another you
TTITLE6=The Rhythm Lords-Pay his way
TTITLE7=Johnny Nicholas-House cleaning blues
TTITLE8=The seatsniffers-Linda Lu
TTITLE9=Candye Kane-Big mama candye's blues
TTITLE10=Johnny Dyer-Wake up and live
TTITLE11=Floyd Dixon-Wake up and live
TTITLE12=Blue Lou and The Headhunters-Dance with a Dolly
TTITLE13=Savoy Brown-You're in for a big surprise
TTITLE14=Rusty Zin-It's love, baby, 24 hours of the day
TTITLE15=Joe Coronado and The Texas Beat-The wasp
EXTD=
EXTT0=
EXTT1=
EXTT2=
EXTT3=
EXTT4=
EXTT5=
EXTT6=
EXTT7=
EXTT8=
EXTT9=
EXTT10=
EXTT11=
EXTT12=
EXTT13=
EXTT14=
EXTT15=
PLAYORDER=
